<svg xmlns="http://www.w3.org/2000/svg" width="24" height="24" viewBox="0 0 24 24" fill="none">
    <path fill-rule="evenodd" clip-rule="evenodd" d="M11.9167 4.33333C7.72749 4.33333 4.33333 7.72591 4.33333 11.9086C4.33333 16.0913 7.72749 19.4839 11.9167 19.4839C16.1058 19.4839 19.5 16.0913 19.5 11.9086C19.5 7.72591 16.1058 4.33333 11.9167 4.33333ZM2 11.9086C2 6.43522 6.44086 2 11.9167 2C17.3925 2 21.8333 6.43522 21.8333 11.9086C21.8333 17.382 17.3925 21.8172 11.9167 21.8172C6.44086 21.8172 2 17.382 2 11.9086Z" fill="#141414"/>
    <path d="M13.1735 10.03L13.1717 10.0335C13.1455 10.0859 13.1168 10.137 13.0857 10.1869L13.2749 10.4054L14.0244 11.2709C14.2829 11.0146 14.4872 10.7273 14.6372 10.4088C14.7873 10.0904 14.8623 9.71371 14.8623 9.27878C14.8623 8.77395 14.7373 8.33513 14.4872 7.96233C14.2454 7.58177 13.9119 7.28663 13.4867 7.07693C13.0698 6.85947 12.5904 6.75073 12.0485 6.75073C11.4315 6.75073 10.8896 6.87112 10.4227 7.11188L11.3737 8.20999C11.5572 8.15078 11.7803 8.11805 12.0485 8.11805C12.3416 8.11805 12.565 8.17945 12.735 8.28499L12.745 8.29069C12.7641 8.3015 12.7828 8.31261 12.8009 8.32404C12.9653 8.42769 13.0897 8.55692 13.1791 8.71239C13.2809 8.8894 13.3311 9.07676 13.3311 9.27878C13.3311 9.58904 13.2743 9.83604 13.1735 10.03Z" fill="#141414"/>
    <path d="M12.7545 10.5853C12.5686 10.7585 12.3614 10.9364 12.1328 11.119C12.0206 11.2086 11.9165 11.3027 11.8208 11.4012L11.5358 12.2961C11.7025 11.9311 12.8216 11.7736 13.1717 11.494C13.4052 11.3076 12.7572 10.9603 12.9489 10.7816C13.0738 10.6653 13.1825 10.5399 13.2749 10.4054L13.0857 10.1869C12.9961 10.3301 12.886 10.4629 12.7545 10.5853Z" fill="#141414"/>
    <path d="M11.2595 13.9071L11.2662 13.9139L11.2734 13.9201C11.4549 14.0779 11.6778 14.1527 11.9234 14.1527C12.1733 14.1527 12.4022 14.0801 12.5807 13.9139L12.5874 13.9071C12.7579 13.737 12.8419 13.524 12.8419 13.2864C12.8419 13.1632 12.8744 12.9838 12.9539 12.7392L12.9546 12.737C13.0217 12.5246 13.1391 12.3593 13.308 12.232C13.6493 11.9777 13.9542 11.7218 14.222 11.4643L14.2251 11.4613C14.5056 11.1831 14.7286 10.8697 14.8925 10.522C15.0628 10.1605 15.143 9.74356 15.143 9.27878C15.143 8.72978 15.0066 8.23878 14.7243 7.81667C14.4551 7.39419 14.0838 7.06665 13.6167 6.83569C13.1541 6.59501 12.6288 6.47852 12.0485 6.47852C11.3936 6.47852 10.8053 6.60647 10.2918 6.87113C9.79041 7.12603 9.39346 7.4818 9.10751 7.93721L9.10545 7.94061C8.82654 8.39963 8.69141 8.92632 8.69141 9.51178C8.69141 9.74943 8.7754 9.9624 8.94587 10.1325L8.95261 10.1393L8.95981 10.1455C9.14127 10.3033 9.36419 10.3781 9.60984 10.3781C9.85975 10.3781 10.0886 10.3055 10.2671 10.1393L10.2738 10.1325C10.4443 9.9624 10.5283 9.74943 10.5283 9.51178C10.5283 9.21229 10.584 8.96444 10.6858 8.76063C10.792 8.56434 10.95 8.40972 11.1689 8.29504C11.2308 8.26258 11.299 8.23409 11.3737 8.20999L10.4227 7.11188C10.8896 6.87112 11.4315 6.75073 12.0485 6.75073C12.5904 6.75073 13.0698 6.85947 13.4867 7.07693C13.9119 7.28663 14.2454 7.58177 14.4872 7.96233C14.7373 8.33513 14.8623 8.77395 14.8623 9.27878C14.8623 9.71371 14.7873 10.0904 14.6372 10.4088C14.4872 10.7273 14.2829 11.0146 14.0244 11.2709L13.2749 10.4054C13.1825 10.5399 13.0738 10.6653 12.9489 10.7816C12.7572 10.9603 13.4052 11.3076 13.1717 11.494C12.8216 11.7736 11.7025 11.9311 11.5358 12.2961L11.8208 11.4012C11.5921 11.6367 11.4109 11.8978 11.2796 12.1848C11.1014 12.5671 11.005 12.9354 11.005 13.2864C11.005 13.524 11.089 13.737 11.2595 13.9071Z" fill="#141414"/>
    <path d="M13.079 16.2709C13.079 16.9113 12.5594 17.4304 11.9184 17.4304C11.2774 17.4304 10.7578 16.9113 10.7578 16.2709C10.7578 15.6305 11.2774 15.1113 11.9184 15.1113C12.5594 15.1113 13.079 15.6305 13.079 16.2709Z" fill="#141414"/>
</svg>