<svg xmlns="http://www.w3.org/2000/svg" fill="none" viewBox="0 0 311 36"><path fill="#8CDFD4" fill-rule="evenodd" d="m.545 7.523 8.728-5.374v17.194L.545 24.717V7.523Zm32.728 0-8.728-5.374v17.194l-7.636 5.374-7.636-5.373-8.728 5.373L16.91 36l16.364-11.283V7.523Z" clip-rule="evenodd"/><path fill="#0B90A2" d="M9.272 0h15.273v11.82l-7.636 5.374-7.637-5.373V0Z"/><path fill="#141414" d="M60.907 35.252h-6.914v-15.45L41.273 1.839h8.157l8.08 11.543L65.562 1.84h8.112l-12.767 18.01v15.403ZM82.205 36c-2.58 0-4.855-.53-6.821-1.589-1.967-1.09-3.503-2.57-4.61-4.44-1.075-1.9-1.612-4.08-1.612-6.542 0-2.461.537-4.627 1.613-6.496 1.106-1.9 2.642-3.38 4.609-4.44 1.966-1.09 4.24-1.635 6.821-1.635 2.55 0 4.809.545 6.775 1.635 1.967 1.06 3.503 2.54 4.61 4.44 1.106 1.87 1.659 4.035 1.659 6.496 0 2.43-.553 4.595-1.66 6.496-1.106 1.9-2.642 3.396-4.609 4.486C87.014 35.471 84.755 36 82.205 36Zm0-5.655c1.198 0 2.243-.28 3.134-.84.922-.593 1.629-1.403 2.12-2.431.523-1.06.784-2.274.784-3.645 0-1.34-.261-2.524-.783-3.552-.492-1.059-1.199-1.885-2.12-2.477-.892-.591-1.937-.887-3.135-.887-1.198 0-2.258.295-3.18.887-.891.592-1.598 1.418-2.12 2.477-.523 1.028-.784 2.212-.784 3.552 0 1.37.261 2.586.784 3.645.522 1.028 1.229 1.838 2.12 2.43.922.56 1.982.841 3.18.841ZM122.193 35.252h-6.729v-4.486l-.046-1.309V11.606h6.775v23.646Zm-6.453-9.767 1.337.795c.031 1.931-.323 3.63-1.06 5.093-.707 1.465-1.736 2.602-3.088 3.412S109.979 36 108.136 36c-2.704 0-4.855-.81-6.453-2.43-1.598-1.651-2.397-4.035-2.397-7.15V11.606h6.776v14.113c0 1.526.368 2.68 1.106 3.458.768.779 1.782 1.168 3.042 1.168.921 0 1.766-.202 2.535-.607a5.316 5.316 0 0 0 1.981-1.73 5.328 5.328 0 0 0 1.014-2.523ZM142.313 11.185v6.169h-1.336c-1.475 0-2.72.28-3.734.84-1.014.53-1.797 1.356-2.35 2.478-.553 1.121-.83 2.601-.83 4.44v10.14h-6.775V11.606h6.729v7.71h-.784c.246-2.15.799-3.8 1.66-4.953.891-1.184 1.92-2.01 3.088-2.477 1.167-.467 2.304-.701 3.41-.701h.922ZM172.329 25.111l4.471 4.627c-1.444 1.87-3.349 3.38-5.715 4.533-2.366 1.152-4.962 1.729-7.789 1.729-2.612 0-4.993-.42-7.144-1.262-2.12-.872-3.964-2.087-5.531-3.645-1.567-1.558-2.781-3.396-3.641-5.514-.83-2.15-1.245-4.502-1.245-7.057 0-2.524.431-4.845 1.291-6.963.891-2.15 2.135-4.004 3.733-5.561 1.598-1.558 3.472-2.757 5.623-3.599 2.151-.872 4.517-1.308 7.098-1.308 2.827 0 5.393.576 7.697 1.729 2.305 1.153 4.179 2.664 5.623 4.533l-4.471 4.627a10.656 10.656 0 0 0-3.779-3.459c-1.536-.84-3.226-1.262-5.07-1.262-1.997 0-3.795.483-5.392 1.45-1.567.965-2.797 2.305-3.688 4.018-.891 1.682-1.336 3.614-1.336 5.795 0 2.18.445 4.128 1.336 5.841.891 1.714 2.121 3.054 3.688 4.02 1.597.965 3.395 1.448 5.392 1.448 1.844 0 3.534-.42 5.07-1.261a11.262 11.262 0 0 0 3.779-3.459ZM192.389 36c-2.581 0-4.854-.53-6.821-1.589-1.966-1.09-3.503-2.57-4.609-4.44-1.075-1.9-1.613-4.08-1.613-6.542 0-2.461.538-4.627 1.613-6.496 1.106-1.9 2.643-3.38 4.609-4.44 1.967-1.09 4.24-1.635 6.821-1.635 2.551 0 4.809.545 6.776 1.635 1.966 1.06 3.503 2.54 4.609 4.44 1.106 1.87 1.659 4.035 1.659 6.496 0 2.43-.553 4.595-1.659 6.496-1.106 1.9-2.643 3.396-4.609 4.486-1.967 1.06-4.225 1.589-6.776 1.589Zm0-5.655c1.199 0 2.244-.28 3.135-.84.921-.593 1.628-1.403 2.12-2.431.522-1.06.783-2.274.783-3.645 0-1.34-.261-2.524-.783-3.552-.492-1.059-1.199-1.885-2.12-2.477-.891-.591-1.936-.887-3.135-.887-1.198 0-2.258.295-3.18.887-.891.592-1.598 1.418-2.12 2.477-.522 1.028-.783 2.212-.783 3.552 0 1.37.261 2.586.783 3.645.522 1.028 1.229 1.838 2.12 2.43.922.56 1.982.841 3.18.841ZM232.746 35.252h-6.775V21.606c0-1.713-.384-2.99-1.152-3.832-.738-.84-1.752-1.262-3.042-1.262-.891 0-1.752.25-2.581.748-.799.499-1.46 1.262-1.982 2.29-.492.997-.738 2.337-.738 4.02v11.682h-6.775V11.606h6.729v7.383h-.783c.245-2.15.799-3.8 1.659-4.953.891-1.184 1.92-2.01 3.088-2.477 1.168-.467 2.304-.701 3.411-.701 2.765 0 4.947.857 6.544 2.57 1.598 1.714 2.397 4.206 2.397 7.477v14.347ZM252.373 35.252h-5.945c-2.213 0-3.872-.56-4.978-1.682-1.106-1.122-1.659-2.804-1.659-5.047V5.53h6.775v21.731c0 .872.169 1.495.507 1.87.369.373.968.56 1.797.56h3.503v5.561Zm-.276-18.132h-16.178v-5.514h16.178v5.514ZM271.582 11.185v6.169h-1.337c-1.475 0-2.719.28-3.733.84-1.014.53-1.798 1.356-2.351 2.478-.553 1.121-.829 2.601-.829 4.44v10.14h-6.776V11.606h6.729v7.71h-.783c.246-2.15.799-3.8 1.659-4.953.891-1.184 1.921-2.01 3.088-2.477 1.168-.467 2.305-.701 3.411-.701h.922ZM286.64 36c-2.581 0-4.855-.53-6.821-1.589-1.967-1.09-3.503-2.57-4.609-4.44-1.076-1.9-1.613-4.08-1.613-6.542 0-2.461.537-4.627 1.613-6.496 1.106-1.9 2.642-3.38 4.609-4.44 1.966-1.09 4.24-1.635 6.821-1.635 2.551 0 4.809.545 6.775 1.635 1.967 1.06 3.503 2.54 4.61 4.44 1.106 1.87 1.659 4.035 1.659 6.496 0 2.43-.553 4.595-1.659 6.496-1.107 1.9-2.643 3.396-4.61 4.486-1.966 1.06-4.224 1.589-6.775 1.589Zm0-5.655c1.199 0 2.243-.28 3.134-.84.922-.593 1.629-1.403 2.121-2.431.522-1.06.783-2.274.783-3.645 0-1.34-.261-2.524-.783-3.552-.492-1.059-1.199-1.885-2.121-2.477-.891-.591-1.935-.887-3.134-.887-1.198 0-2.258.295-3.18.887-.891.592-1.598 1.418-2.12 2.477-.522 1.028-.784 2.212-.784 3.552 0 1.37.262 2.586.784 3.645.522 1.028 1.229 1.838 2.12 2.43.922.56 1.982.841 3.18.841ZM310.727 35.252h-6.775V1.605h6.775v33.647Z"/></svg>